<?xml version="1.0" encoding="utf-8"?>
<!-- Generator: Adobe Illustrator 19.1.0, SVG Export Plug-In . SVG Version: 6.00 Build 0)  -->
<svg version="1.1" id="Layer_1" xmlns="http://www.w3.org/2000/svg" xmlns:xlink="http://www.w3.org/1999/xlink" x="0px" y="0px"
	 viewBox="0 0 128 128" style="enable-background:new 0 0 128 128;" xml:space="preserve">
<style type="text/css">
	/*.st0{opacity:0.48;}*/
	.st1{fill-rule:evenodd;clip-rule:evenodd;fill:#48555f;}
	.st2{fill:#48555f;}
</style>
<g id="XMLID_235_" class="st0">
	<g id="XMLID_297_">
		<path id="XMLID_298_" class="st1" d="M65.8,6.3C34,6.3,8.3,32,8.3,63.8s25.7,57.5,57.5,57.5s57.5-25.7,57.5-57.5
			S97.5,6.3,65.8,6.3z M65.8,118.3c-30.1,0-54.5-24.4-54.5-54.5S35.7,9.3,65.8,9.3s54.5,24.4,54.5,54.5S95.9,118.3,65.8,118.3z"/>
	</g>
	<g id="XMLID_233_">
		<path id="XMLID_241_" class="st2" d="M63.5,16.6c-0.4,0-0.7,0.3-0.7,0.7v8.2c0,0.4-0.3,0.7-0.7,0.7h-3.9c-0.4,0-0.7-0.3-0.7-0.7
			v-8.2c0-0.4-0.3-0.7-0.7-0.7h-1.7c-0.4,0-0.7,0.3-0.7,0.7v8.2c0,0.4-0.3,0.7-0.7,0.7h-3.9c-0.4,0-0.7-0.3-0.7-0.7v-8.2
			c0-0.4-0.3-0.7-0.7-0.7h-1.7c-0.4,0-0.7,0.3-0.7,0.7v11.2c0,0.4,0.3,0.7,0.7,0.7h18.3c0.4,0,0.7-0.3,0.7-0.7V17.3
			c0-0.4-0.3-0.7-0.7-0.7H63.5z"/>
		<path id="XMLID_238_" class="st2" d="M35.7,41.7c0.4,0,0.7-0.3,0.7-0.7v-1.7c0-0.4-0.3-0.7-0.7-0.7H20c-0.4,0-0.7,0.3-0.7,0.7v1.7
			c0,0.4,0.3,0.7,0.7,0.7h2.3c0.4,0,0.7,0.3,0.7,0.7v17.7c0,0.4-0.3,0.7-0.7,0.7H20c-0.4,0-0.7,0.3-0.7,0.7v1.7
			c0,0.4,0.3,0.7,0.7,0.7h15.7c0.4,0,0.7-0.3,0.7-0.7v-1.7c0-0.4-0.3-0.7-0.7-0.7h-2.3c-0.4,0-0.7-0.3-0.7-0.7V42.4
			c0-0.4,0.3-0.7,0.7-0.7H35.7z M29.7,60.1c0,0.4-0.3,0.7-0.7,0.7h-2.3c-0.4,0-0.7-0.3-0.7-0.7V42.4c0-0.4,0.3-0.7,0.7-0.7H29
			c0.4,0,0.7,0.3,0.7,0.7V60.1z"/>
		<path id="XMLID_237_" class="st2" d="M65.1,45.4h-6.9c-0.4,0-0.7-0.3-0.7-0.7v-2.2c0-0.4,0.3-0.7,0.7-0.7h6.9
			c0.4,0,0.7-0.3,0.7-0.7v-1.7c0-0.4-0.3-0.7-0.7-0.7H46.9c-0.4,0-0.7,0.3-0.7,0.7v1.7c0,0.4,0.3,0.7,0.7,0.7h6.9
			c0.4,0,0.7,0.3,0.7,0.7v2.2c0,0.4-0.3,0.7-0.7,0.7h-6.9c-0.4,0-0.7,0.3-0.7,0.7v17c0,0.4,0.3,0.7,0.7,0.7h1.7
			c0.4,0,0.7-0.3,0.7-0.7v-14c0-0.4,0.3-0.7,0.7-0.7H51c0.4,0,0.7,0.3,0.7,0.7v14c0,0.4,0.3,0.7,0.7,0.7H54c0.4,0,0.7-0.3,0.7-0.7
			v-14c0-0.4,0.3-0.7,0.7-0.7h1.1c0.4,0,0.7,0.3,0.7,0.7v14c0,0.4,0.3,0.7,0.7,0.7h1.7c0.4,0,0.7-0.3,0.7-0.7v-14
			c0-0.4,0.3-0.7,0.7-0.7h1.1c0.4,0,0.7,0.3,0.7,0.7v14c0,0.4,0.3,0.7,0.7,0.7h1.7c0.4,0,0.7-0.3,0.7-0.7v-17
			C65.8,45.7,65.5,45.4,65.1,45.4z"/>
		<g id="XMLID_234_">
			<circle class="st1" cx="27.7" cy="22.9" r="6.8"/>
		</g>
	</g>
</g>
</svg>
